# Blender v2.79 (sub 0) OBJ File: ''
# www.blender.org
mtllib box.mtl
o wall4
v 1.500000 1.000000 -1.500000
v 1.500000 -1.000000 -1.500000
v 1.500000 -1.000000 1.500000
v 1.500000 1.000000 1.500000
vn -1.0000 0.0000 0.0000
usemtl rightwall
s 1
f 1//1 2//1 3//1
f 3//1 4//1 1//1
o wall3
v -1.500000 -1.000000 -1.500000
v -1.500000 1.000000 -1.500000
v -1.500000 1.000000 1.500000
v -1.500000 -1.000000 1.500000
vn 1.0000 0.0000 0.0000
usemtl leftwall
s 1
f 5//2 6//2 7//2
f 7//2 8//2 5//2
o wall
v 1.500000 -1.000000 -1.500000
v -1.500000 -1.000000 -1.500000
v -1.500000 -1.000000 1.500000
v 1.500000 -1.000000 1.500000
vn 0.0000 1.0000 0.0000
usemtl backwall
s 1
f 9//3 10//3 11//3
f 11//3 12//3 9//3
o wall2
v 1.500000 -1.000000 1.500000
v -1.500000 -1.000000 1.500000
v -1.500000 1.000000 1.500000
v 1.500000 1.000000 1.500000
vn 0.0000 0.0000 -1.0000
usemtl floor
s 1
f 13//4 14//4 15//4
f 15//4 16//4 13//4
o Grid.002
v -1.166667 -1.000000 -1.500000
v -1.500000 -0.777778 -1.500000
v -1.500000 -1.000000 -1.500000
v -0.833334 -1.000000 -1.500000
v -1.166667 -0.777778 -1.500000
v -0.499999 -1.000000 -1.500000
v -0.833334 -0.777778 -1.500000
v -0.166667 -1.000000 -1.500000
v -0.499999 -0.777778 -1.500000
v 0.166667 -1.000000 -1.500000
v -0.166667 -0.777778 -1.500000
v 0.499999 -1.000000 -1.500000
v 0.166667 -0.777778 -1.500000
v 0.833334 -1.000000 -1.500000
v 0.499999 -0.777778 -1.500000
v 1.166667 -1.000000 -1.500000
v 0.833334 -0.777778 -1.500000
v 1.500000 -1.000000 -1.500000
v 1.166667 -0.777778 -1.500000
v -1.500000 -0.555556 -1.500000
v -1.166667 -0.555556 -1.500000
v -0.833334 -0.555556 -1.500000
v -0.499999 -0.555556 -1.500000
v -0.166667 -0.555556 -1.500000
v 0.166667 -0.555556 -1.500000
v 0.499999 -0.555556 -1.500000
v 0.833334 -0.555556 -1.500000
v 1.500000 -0.777778 -1.500000
v 1.166667 -0.555556 -1.500000
v -1.500000 -0.333333 -1.500000
v -1.166667 -0.333333 -1.500000
v -0.833334 -0.333333 -1.500000
v -0.499999 -0.333333 -1.500000
v -0.166667 -0.333333 -1.500000
v 0.166667 -0.333333 -1.500000
v 0.499999 -0.333333 -1.500000
v 0.833334 -0.333333 -1.500000
v 1.500000 -0.555556 -1.500000
v 1.166667 -0.333333 -1.500000
v -1.500000 -0.111111 -1.500000
v -1.166667 -0.111111 -1.500000
v -0.833334 -0.111111 -1.500000
v 0.499999 -0.111111 -1.500000
v 0.833334 -0.111111 -1.500000
v 1.500000 -0.333333 -1.500000
v 1.166667 -0.111111 -1.500000
v -1.500000 0.111111 -1.500000
v -1.166667 0.111111 -1.500000
v -0.499999 -0.111111 -1.500000
v -0.833334 0.111111 -1.500000
v 0.499999 0.111111 -1.500000
v 0.833334 0.111111 -1.500000
v 1.500000 -0.111111 -1.500000
v 1.166667 0.111111 -1.500000
v -1.500000 0.333333 -1.500000
v -1.166667 0.333333 -1.500000
v -0.499999 0.111111 -1.500000
v -0.833334 0.333333 -1.500000
v 0.499999 0.333333 -1.500000
v 0.833334 0.333333 -1.500000
v 1.500000 0.111111 -1.500000
v 1.166667 0.333333 -1.500000
v -1.500000 0.555556 -1.500000
v -1.166667 0.555556 -1.500000
v -0.499999 0.333333 -1.500000
v -0.833334 0.555556 -1.500000
v -0.166667 0.333333 -1.500000
v -0.499999 0.555556 -1.500000
v 0.166667 0.333333 -1.500000
v -0.166667 0.555556 -1.500000
v 0.166667 0.555556 -1.500000
v 0.499999 0.555556 -1.500000
v 0.833334 0.555556 -1.500000
v 1.500000 0.333333 -1.500000
v 1.166667 0.555556 -1.500000
v -1.500000 0.777778 -1.500000
v -1.166667 0.777778 -1.500000
v -0.833334 0.777778 -1.500000
v -0.499999 0.777778 -1.500000
v -0.166667 0.777778 -1.500000
v 0.166667 0.777778 -1.500000
v 0.499999 0.777778 -1.500000
v 0.833334 0.777778 -1.500000
v 1.500000 0.555556 -1.500000
v 1.166667 0.777778 -1.500000
v -1.500000 1.000000 -1.500000
v -1.166667 1.000000 -1.500000
v -0.833334 1.000000 -1.500000
v -0.499999 1.000000 -1.500000
v -0.166667 1.000000 -1.500000
v 0.166667 1.000000 -1.500000
v 0.499999 1.000000 -1.500000
v 0.833334 1.000000 -1.500000
v 1.500000 0.777778 -1.500000
v 1.166667 1.000000 -1.500000
v 1.500000 1.000000 -1.500000
v -0.166667 -0.111111 -1.500000
v 0.166667 -0.111111 -1.500000
v 0.166667 0.111111 -1.500000
v -0.166667 0.111111 -1.500000
vn 0.0000 0.0000 1.0000
usemtl ceiling
s 1
f 17//5 18//5 19//5
f 20//5 21//5 17//5
f 22//5 23//5 20//5
f 24//5 25//5 22//5
f 26//5 27//5 24//5
f 28//5 29//5 26//5
f 30//5 31//5 28//5
f 32//5 33//5 30//5
f 34//5 35//5 32//5
f 21//5 36//5 18//5
f 23//5 37//5 21//5
f 25//5 38//5 23//5
f 27//5 39//5 25//5
f 29//5 40//5 27//5
f 31//5 41//5 29//5
f 33//5 42//5 31//5
f 35//5 43//5 33//5
f 44//5 45//5 35//5
f 37//5 46//5 36//5
f 38//5 47//5 37//5
f 39//5 48//5 38//5
f 40//5 49//5 39//5
f 41//5 50//5 40//5
f 42//5 51//5 41//5
f 43//5 52//5 42//5
f 45//5 53//5 43//5
f 54//5 55//5 45//5
f 47//5 56//5 46//5
f 48//5 57//5 47//5
f 49//5 58//5 48//5
f 53//5 59//5 52//5
f 55//5 60//5 53//5
f 61//5 62//5 55//5
f 57//5 63//5 56//5
f 58//5 64//5 57//5
f 65//5 66//5 58//5
f 60//5 67//5 59//5
f 62//5 68//5 60//5
f 69//5 70//5 62//5
f 64//5 71//5 63//5
f 66//5 72//5 64//5
f 73//5 74//5 66//5
f 68//5 75//5 67//5
f 70//5 76//5 68//5
f 77//5 78//5 70//5
f 72//5 79//5 71//5
f 74//5 80//5 72//5
f 81//5 82//5 74//5
f 83//5 84//5 81//5
f 85//5 86//5 83//5
f 75//5 87//5 85//5
f 76//5 88//5 75//5
f 78//5 89//5 76//5
f 90//5 91//5 78//5
f 80//5 92//5 79//5
f 82//5 93//5 80//5
f 84//5 94//5 82//5
f 86//5 95//5 84//5
f 87//5 96//5 86//5
f 88//5 97//5 87//5
f 89//5 98//5 88//5
f 91//5 99//5 89//5
f 100//5 101//5 91//5
f 93//5 102//5 92//5
f 94//5 103//5 93//5
f 95//5 104//5 94//5
f 96//5 105//5 95//5
f 97//5 106//5 96//5
f 98//5 107//5 97//5
f 99//5 108//5 98//5
f 101//5 109//5 99//5
f 110//5 111//5 101//5
f 17//5 21//5 18//5
f 20//5 23//5 21//5
f 22//5 25//5 23//5
f 24//5 27//5 25//5
f 26//5 29//5 27//5
f 28//5 31//5 29//5
f 30//5 33//5 31//5
f 32//5 35//5 33//5
f 34//5 44//5 35//5
f 21//5 37//5 36//5
f 23//5 38//5 37//5
f 25//5 39//5 38//5
f 27//5 40//5 39//5
f 29//5 41//5 40//5
f 31//5 42//5 41//5
f 33//5 43//5 42//5
f 35//5 45//5 43//5
f 44//5 54//5 45//5
f 37//5 47//5 46//5
f 38//5 48//5 47//5
f 39//5 49//5 48//5
f 40//5 50//5 49//5
f 41//5 51//5 50//5
f 42//5 52//5 51//5
f 43//5 53//5 52//5
f 45//5 55//5 53//5
f 54//5 61//5 55//5
f 47//5 57//5 56//5
f 48//5 58//5 57//5
f 49//5 65//5 58//5
f 53//5 60//5 59//5
f 55//5 62//5 60//5
f 61//5 69//5 62//5
f 57//5 64//5 63//5
f 58//5 66//5 64//5
f 65//5 73//5 66//5
f 60//5 68//5 67//5
f 62//5 70//5 68//5
f 69//5 77//5 70//5
f 64//5 72//5 71//5
f 66//5 74//5 72//5
f 73//5 81//5 74//5
f 68//5 76//5 75//5
f 70//5 78//5 76//5
f 77//5 90//5 78//5
f 72//5 80//5 79//5
f 74//5 82//5 80//5
f 81//5 84//5 82//5
f 83//5 86//5 84//5
f 85//5 87//5 86//5
f 75//5 88//5 87//5
f 76//5 89//5 88//5
f 78//5 91//5 89//5
f 90//5 100//5 91//5
f 80//5 93//5 92//5
f 82//5 94//5 93//5
f 84//5 95//5 94//5
f 86//5 96//5 95//5
f 87//5 97//5 96//5
f 88//5 98//5 97//5
f 89//5 99//5 98//5
f 91//5 101//5 99//5
f 100//5 110//5 101//5
f 93//5 103//5 102//5
f 94//5 104//5 103//5
f 95//5 105//5 104//5
f 96//5 106//5 105//5
f 97//5 107//5 106//5
f 98//5 108//5 107//5
f 99//5 109//5 108//5
f 101//5 111//5 109//5
f 110//5 112//5 111//5
usemtl light
f 50//5 65//5 49//5
f 51//5 113//5 50//5
f 52//5 114//5 51//5
f 113//5 73//5 65//5
f 59//5 115//5 114//5
f 116//5 81//5 73//5
f 115//5 83//5 116//5
f 67//5 85//5 115//5
f 50//5 113//5 65//5
f 51//5 114//5 113//5
f 52//5 59//5 114//5
f 113//5 116//5 73//5
f 59//5 67//5 115//5
f 116//5 83//5 81//5
f 115//5 85//5 83//5
f 67//5 75//5 85//5
f 114//5 116//5 113//5
f 114//5 115//5 116//5
