# Blender v2.79 (sub 0) OBJ File: 'scene.blend'
# www.blender.org
mtllib cubescene2.mtl
o wall
v -1.500000 -1.000000 1.500000
v 1.500000 -1.000000 1.500000
v 1.500000 -1.000000 -1.500000
v -1.500000 -1.000000 -1.500000
vn 0.0000 1.0000 0.0000
usemtl backwall
s 1
f 1//1 2//1 3//1
f 3//1 4//1 1//1
o Grid.002
v 1.166667 -1.000000 1.500000
v 1.500000 -0.777778 1.500000
v 1.500000 -1.000000 1.500000
v 0.833334 -1.000000 1.500000
v 1.166667 -0.777778 1.500000
v 0.499999 -1.000000 1.500000
v 0.833334 -0.777778 1.500000
v 0.166667 -1.000000 1.500000
v 0.499999 -0.777778 1.500000
v -0.166667 -1.000000 1.500000
v 0.166667 -0.777778 1.500000
v -0.499999 -1.000000 1.500000
v -0.166667 -0.777778 1.500000
v -0.833334 -1.000000 1.500000
v -0.499999 -0.777778 1.500000
v -1.166667 -1.000000 1.500000
v -0.833334 -0.777778 1.500000
v -1.500000 -1.000000 1.500000
v -1.166667 -0.777778 1.500000
v 1.500000 -0.555556 1.500000
v 1.166667 -0.555556 1.500000
v 0.833334 -0.555556 1.500000
v 0.499999 -0.555556 1.500000
v 0.166667 -0.555556 1.500000
v -0.166667 -0.555556 1.500000
v -0.499999 -0.555556 1.500000
v -0.833334 -0.555556 1.500000
v -1.500000 -0.777778 1.500000
v -1.166667 -0.555556 1.500000
v 1.500000 -0.333333 1.500000
v 1.166667 -0.333333 1.500000
v 0.833334 -0.333333 1.500000
v 0.499999 -0.333333 1.500000
v 0.166667 -0.333333 1.500000
v -0.166667 -0.333333 1.500000
v -0.499999 -0.333333 1.500000
v -0.833334 -0.333333 1.500000
v -1.500000 -0.555556 1.500000
v -1.166667 -0.333333 1.500000
v 1.500000 -0.111111 1.500000
v 1.166667 -0.111111 1.500000
v 0.833334 -0.111111 1.500000
v -0.499999 -0.111111 1.500000
v -0.833334 -0.111111 1.500000
v -1.500000 -0.333333 1.500000
v -1.166667 -0.111111 1.500000
v 1.500000 0.111111 1.500000
v 1.166667 0.111111 1.500000
v 0.499999 -0.111111 1.500000
v 0.833334 0.111111 1.500000
v -0.499999 0.111111 1.500000
v -0.833334 0.111111 1.500000
v -1.500000 -0.111111 1.500000
v -1.166667 0.111111 1.500000
v 1.500000 0.333333 1.500000
v 1.166667 0.333333 1.500000
v 0.499999 0.111111 1.500000
v 0.833334 0.333333 1.500000
v -0.499999 0.333333 1.500000
v -0.833334 0.333333 1.500000
v -1.500000 0.111111 1.500000
v -1.166667 0.333333 1.500000
v 1.500000 0.555556 1.500000
v 1.166667 0.555556 1.500000
v 0.499999 0.333333 1.500000
v 0.833334 0.555556 1.500000
v 0.166667 0.333333 1.500000
v 0.499999 0.555556 1.500000
v -0.166667 0.333333 1.500000
v 0.166667 0.555556 1.500000
v -0.166667 0.555556 1.500000
v -0.499999 0.555556 1.500000
v -0.833334 0.555556 1.500000
v -1.500000 0.333333 1.500000
v -1.166667 0.555556 1.500000
v 1.500000 0.777778 1.500000
v 1.166667 0.777778 1.500000
v 0.833334 0.777778 1.500000
v 0.499999 0.777778 1.500000
v 0.166667 0.777778 1.500000
v -0.166667 0.777778 1.500000
v -0.499999 0.777778 1.500000
v -0.833334 0.777778 1.500000
v -1.500000 0.555556 1.500000
v -1.166667 0.777778 1.500000
v 1.500000 1.000000 1.500000
v 1.166667 1.000000 1.500000
v 0.833334 1.000000 1.500000
v 0.499999 1.000000 1.500000
v 0.166667 1.000000 1.500000
v -0.166667 1.000000 1.500000
v -0.499999 1.000000 1.500000
v -0.833334 1.000000 1.500000
v -1.500000 0.777778 1.500000
v -1.166667 1.000000 1.500000
v -1.500000 1.000000 1.500000
v 0.166667 -0.111111 1.500000
v -0.166667 -0.111111 1.500000
v -0.166667 0.111111 1.500000
v 0.166667 0.111111 1.500000
vn 0.0000 -0.0000 -1.0000
usemtl light
s 1
f 38//2 53//2 37//2
f 39//2 101//2 38//2
f 40//2 102//2 39//2
f 101//2 61//2 53//2
f 47//2 103//2 102//2
f 104//2 69//2 61//2
f 103//2 71//2 104//2
f 55//2 73//2 103//2
f 38//2 101//2 53//2
f 39//2 102//2 101//2
f 40//2 47//2 102//2
f 101//2 104//2 61//2
f 47//2 55//2 103//2
f 104//2 71//2 69//2
f 103//2 73//2 71//2
f 55//2 63//2 73//2
f 102//2 104//2 101//2
f 102//2 103//2 104//2
usemtl ceiling
f 5//2 6//2 7//2
f 8//2 9//2 5//2
f 10//2 11//2 8//2
f 12//2 13//2 10//2
f 14//2 15//2 12//2
f 16//2 17//2 14//2
f 18//2 19//2 16//2
f 20//2 21//2 18//2
f 22//2 23//2 20//2
f 9//2 24//2 6//2
f 11//2 25//2 9//2
f 13//2 26//2 11//2
f 15//2 27//2 13//2
f 17//2 28//2 15//2
f 19//2 29//2 17//2
f 21//2 30//2 19//2
f 23//2 31//2 21//2
f 32//2 33//2 23//2
f 25//2 34//2 24//2
f 26//2 35//2 25//2
f 27//2 36//2 26//2
f 28//2 37//2 27//2
f 29//2 38//2 28//2
f 30//2 39//2 29//2
f 31//2 40//2 30//2
f 33//2 41//2 31//2
f 42//2 43//2 33//2
f 35//2 44//2 34//2
f 36//2 45//2 35//2
f 37//2 46//2 36//2
f 41//2 47//2 40//2
f 43//2 48//2 41//2
f 49//2 50//2 43//2
f 45//2 51//2 44//2
f 46//2 52//2 45//2
f 53//2 54//2 46//2
f 48//2 55//2 47//2
f 50//2 56//2 48//2
f 57//2 58//2 50//2
f 52//2 59//2 51//2
f 54//2 60//2 52//2
f 61//2 62//2 54//2
f 56//2 63//2 55//2
f 58//2 64//2 56//2
f 65//2 66//2 58//2
f 60//2 67//2 59//2
f 62//2 68//2 60//2
f 69//2 70//2 62//2
f 71//2 72//2 69//2
f 73//2 74//2 71//2
f 63//2 75//2 73//2
f 64//2 76//2 63//2
f 66//2 77//2 64//2
f 78//2 79//2 66//2
f 68//2 80//2 67//2
f 70//2 81//2 68//2
f 72//2 82//2 70//2
f 74//2 83//2 72//2
f 75//2 84//2 74//2
f 76//2 85//2 75//2
f 77//2 86//2 76//2
f 79//2 87//2 77//2
f 88//2 89//2 79//2
f 81//2 90//2 80//2
f 82//2 91//2 81//2
f 83//2 92//2 82//2
f 84//2 93//2 83//2
f 85//2 94//2 84//2
f 86//2 95//2 85//2
f 87//2 96//2 86//2
f 89//2 97//2 87//2
f 98//2 99//2 89//2
f 5//2 9//2 6//2
f 8//2 11//2 9//2
f 10//2 13//2 11//2
f 12//2 15//2 13//2
f 14//2 17//2 15//2
f 16//2 19//2 17//2
f 18//2 21//2 19//2
f 20//2 23//2 21//2
f 22//2 32//2 23//2
f 9//2 25//2 24//2
f 11//2 26//2 25//2
f 13//2 27//2 26//2
f 15//2 28//2 27//2
f 17//2 29//2 28//2
f 19//2 30//2 29//2
f 21//2 31//2 30//2
f 23//2 33//2 31//2
f 32//2 42//2 33//2
f 25//2 35//2 34//2
f 26//2 36//2 35//2
f 27//2 37//2 36//2
f 28//2 38//2 37//2
f 29//2 39//2 38//2
f 30//2 40//2 39//2
f 31//2 41//2 40//2
f 33//2 43//2 41//2
f 42//2 49//2 43//2
f 35//2 45//2 44//2
f 36//2 46//2 45//2
f 37//2 53//2 46//2
f 41//2 48//2 47//2
f 43//2 50//2 48//2
f 49//2 57//2 50//2
f 45//2 52//2 51//2
f 46//2 54//2 52//2
f 53//2 61//2 54//2
f 48//2 56//2 55//2
f 50//2 58//2 56//2
f 57//2 65//2 58//2
f 52//2 60//2 59//2
f 54//2 62//2 60//2
f 61//2 69//2 62//2
f 56//2 64//2 63//2
f 58//2 66//2 64//2
f 65//2 78//2 66//2
f 60//2 68//2 67//2
f 62//2 70//2 68//2
f 69//2 72//2 70//2
f 71//2 74//2 72//2
f 73//2 75//2 74//2
f 63//2 76//2 75//2
f 64//2 77//2 76//2
f 66//2 79//2 77//2
f 78//2 88//2 79//2
f 68//2 81//2 80//2
f 70//2 82//2 81//2
f 72//2 83//2 82//2
f 74//2 84//2 83//2
f 75//2 85//2 84//2
f 76//2 86//2 85//2
f 77//2 87//2 86//2
f 79//2 89//2 87//2
f 88//2 98//2 89//2
f 81//2 91//2 90//2
f 82//2 92//2 91//2
f 83//2 93//2 92//2
f 84//2 94//2 93//2
f 85//2 95//2 94//2
f 86//2 96//2 95//2
f 87//2 97//2 96//2
f 89//2 99//2 97//2
f 98//2 100//2 99//2
o wall2
v -1.500000 -1.000000 -1.500000
v 1.500000 -1.000000 -1.500000
v 1.500000 1.000000 -1.500000
v -1.500000 1.000000 -1.500000
vn 0.0000 0.0000 1.0000
usemtl None.006
s 1
f 105//3 106//3 107//3
f 107//3 108//3 105//3
o wall3
v 1.500000 -1.000000 1.500000
v 1.500000 1.000000 1.500000
v 1.500000 1.000000 -1.500000
v 1.500000 -1.000000 -1.500000
vn -1.0000 0.0000 0.0000
usemtl None.005
s 1
f 109//4 110//4 111//4
f 111//4 112//4 109//4
o wall4
v -1.500000 1.000000 1.500000
v -1.500000 -1.000000 1.500000
v -1.500000 -1.000000 -1.500000
v -1.500000 1.000000 -1.500000
vn 1.0000 0.0000 0.0000
usemtl rightwall
s 1
f 113//5 114//5 115//5
f 115//5 116//5 113//5
o Cube_Cube.002
v 0.250000 -0.250000 -1.490000
v 0.250000 0.250000 -1.490000
v 0.250000 -0.250000 -0.990000
v 0.250000 0.250000 -0.990000
v -0.250000 -0.250000 -1.490000
v -0.250000 0.250000 -1.490000
v -0.250000 -0.250000 -0.990000
v -0.250000 0.250000 -0.990000
vn 1.0000 0.0000 0.0000
vn 0.0000 0.0000 1.0000
vn -1.0000 0.0000 0.0000
vn 0.0000 0.0000 -1.0000
vn 0.0000 -1.0000 0.0000
vn 0.0000 1.0000 0.0000
usemtl cube
s off
f 118//6 119//6 117//6
f 120//7 123//7 119//7
f 124//8 121//8 123//8
f 122//9 117//9 121//9
f 123//10 117//10 119//10
f 120//11 122//11 124//11
f 118//6 120//6 119//6
f 120//7 124//7 123//7
f 124//8 122//8 121//8
f 122//9 118//9 117//9
f 123//10 121//10 117//10
f 120//11 118//11 122//11
